<svg width="200" height="200" viewBox="68 66 64 64" xmlns="http://www.w3.org/2000/svg">
  <g transform="translate(100.00 110.00) rotate(0) scale(1.000) translate(-32 -46)">
    <ellipse cx="32" cy="46" rx="16" ry="17" fill="#1b1b2f"/>
  </g>
  <g transform="translate(115 104) rotate(44)">
    <ellipse cx="0" cy="0" rx="5" ry="13" fill="#1b1b2f"/>
  </g>
  <g transform="translate(100.00 113.00) rotate(0) scale(1.000) translate(-32 -49)">
    <ellipse cx="32" cy="49" rx="9" ry="12" fill="#f5f0eb"/>
  </g>
  <g transform="translate(100.00 92.00) rotate(0) scale(1.000) translate(-32 -28)">
    <circle cx="32" cy="28" r="13" fill="#1b1b2f"/>
  </g>
  <g transform="translate(86.00 110.00) rotate(25) scale(1.000) translate(-16 -46)">
    <ellipse cx="16" cy="46" rx="5" ry="11" fill="#1b1b2f" transform="rotate(-12 16 46)"/>
  </g>
  <g transform="translate(100.00 126.00) rotate(0) scale(1.000) translate(-32 -62)">
    <ellipse cx="25" cy="62" rx="7" ry="3" fill="#f97316" transform="rotate(-15 25 62)"/><ellipse cx="39" cy="62" rx="7" ry="3" fill="#f97316" transform="rotate(15 39 62)"/>
  </g>
  <g transform="translate(100.00 97.00) rotate(0) scale(1.000) translate(-32 -33)">
    <ellipse cx="32" cy="33" rx="3.5" ry="2.5" fill="#f97316"/>
  </g>
  <g transform="translate(100.00 94.00) rotate(0) scale(1.000) translate(-32 -30)">
    <rect x="22" y="27" width="9" height="6" rx="2.5" fill="#1e293b" stroke="#0f172a" stroke-width="1.2"/><rect x="33" y="27" width="9" height="6" rx="2.5" fill="#1e293b" stroke="#0f172a" stroke-width="1.2"/><line x1="31" y1="30" x2="33" y2="30" stroke="#0f172a" stroke-width="1.2" stroke-linecap="round"/><line x1="22" y1="30" x2="19" y2="30" stroke="#0f172a" stroke-width="1.2" stroke-linecap="round"/><line x1="42" y1="30" x2="45" y2="30" stroke="#0f172a" stroke-width="1.2" stroke-linecap="round"/><circle cx="25" cy="29" r="1" fill="white" opacity="0.4"/><circle cx="36" cy="29" r="1" fill="white" opacity="0.4"/>
  </g>
  <g transform="translate(100.00 77.67) rotate(0) scale(1.100) translate(-32 -15)">
    <rect x="24" y="8" width="16" height="14" rx="2" fill="#f472b6" stroke="#db2777" stroke-width="1.5"/><rect x="20" y="21" width="24" height="4" rx="2" fill="#f472b6" stroke="#db2777" stroke-width="1.5"/><rect x="24" y="17" width="16" height="3" rx="1" fill="#be185d" opacity="0.6"/>
  </g>
</svg>
